<mxfile host="app.diagrams.net" modified="2024-05-14T09:41:36.562Z" agent="Mozilla/5.0 (Windows NT 10.0; Win64; x64) AppleWebKit/537.36 (KHTML, like Gecko) Chrome/124.0.0.0 Safari/537.36" etag="Gn7DIAt3Ct8MeNql8TFL" version="24.4.0" type="google">
  <diagram id="C5RBs43oDa-KdzZeNtuy" name="Page-1">
    <mxGraphModel grid="1" page="1" gridSize="10" guides="1" tooltips="1" connect="1" arrows="1" fold="1" pageScale="1" pageWidth="827" pageHeight="1169" math="0" shadow="0">
      <root>
        <mxCell id="WIyWlLk6GJQsqaUBKTNV-0" />
        <mxCell id="WIyWlLk6GJQsqaUBKTNV-1" parent="WIyWlLk6GJQsqaUBKTNV-0" />
        <mxCell id="nw-LskAQN57HLbFkefRe-48" style="edgeStyle=orthogonalEdgeStyle;rounded=0;orthogonalLoop=1;jettySize=auto;html=1;exitX=1;exitY=0.5;exitDx=0;exitDy=0;" edge="1" parent="WIyWlLk6GJQsqaUBKTNV-1" source="nw-LskAQN57HLbFkefRe-0">
          <mxGeometry relative="1" as="geometry">
            <mxPoint x="389" y="56" as="targetPoint" />
          </mxGeometry>
        </mxCell>
        <mxCell id="nw-LskAQN57HLbFkefRe-54" style="edgeStyle=elbowEdgeStyle;rounded=0;orthogonalLoop=1;jettySize=auto;html=1;exitX=0;exitY=0.5;exitDx=0;exitDy=0;entryX=1.028;entryY=0.044;entryDx=0;entryDy=0;entryPerimeter=0;" edge="1" parent="WIyWlLk6GJQsqaUBKTNV-1" target="nw-LskAQN57HLbFkefRe-49">
          <mxGeometry relative="1" as="geometry">
            <mxPoint x="210" y="105.25" as="sourcePoint" />
            <mxPoint x="140" y="100.75" as="targetPoint" />
          </mxGeometry>
        </mxCell>
        <mxCell id="nw-LskAQN57HLbFkefRe-0" value="rec_equ" style="swimlane;whiteSpace=wrap;html=1;" vertex="1" parent="WIyWlLk6GJQsqaUBKTNV-1">
          <mxGeometry x="210" y="50" width="100" height="90" as="geometry" />
        </mxCell>
        <mxCell id="nw-LskAQN57HLbFkefRe-5" value="&lt;u&gt;Equ_id&lt;/u&gt;&lt;div&gt;&lt;u&gt;Rec_id&lt;/u&gt;&lt;/div&gt;" style="text;html=1;align=center;verticalAlign=middle;resizable=0;points=[];autosize=1;strokeColor=none;fillColor=none;" vertex="1" parent="nw-LskAQN57HLbFkefRe-0">
          <mxGeometry x="20" y="30" width="60" height="40" as="geometry" />
        </mxCell>
        <mxCell id="nw-LskAQN57HLbFkefRe-59" style="edgeStyle=elbowEdgeStyle;rounded=0;orthogonalLoop=1;jettySize=auto;html=1;" edge="1" parent="WIyWlLk6GJQsqaUBKTNV-1">
          <mxGeometry relative="1" as="geometry">
            <mxPoint x="340" y="400" as="targetPoint" />
            <mxPoint x="250" y="320" as="sourcePoint" />
            <Array as="points">
              <mxPoint x="295" y="328" />
            </Array>
          </mxGeometry>
        </mxCell>
        <mxCell id="nw-LskAQN57HLbFkefRe-1" value="img_equ" style="swimlane;whiteSpace=wrap;html=1;" vertex="1" parent="WIyWlLk6GJQsqaUBKTNV-1">
          <mxGeometry x="150" y="260" width="100" height="90" as="geometry" />
        </mxCell>
        <mxCell id="nw-LskAQN57HLbFkefRe-6" value="&lt;u&gt;Equ_id&lt;/u&gt;&lt;div&gt;&lt;u&gt;Image_id&lt;/u&gt;&lt;div&gt;&lt;br&gt;&lt;/div&gt;&lt;/div&gt;" style="text;html=1;align=center;verticalAlign=middle;resizable=0;points=[];autosize=1;strokeColor=none;fillColor=none;" vertex="1" parent="nw-LskAQN57HLbFkefRe-1">
          <mxGeometry x="15" y="30" width="70" height="60" as="geometry" />
        </mxCell>
        <mxCell id="nw-LskAQN57HLbFkefRe-101" style="edgeStyle=elbowEdgeStyle;rounded=0;orthogonalLoop=1;jettySize=auto;html=1;exitX=0;exitY=0.5;exitDx=0;exitDy=0;" edge="1" parent="WIyWlLk6GJQsqaUBKTNV-1" source="nw-LskAQN57HLbFkefRe-2">
          <mxGeometry relative="1" as="geometry">
            <mxPoint x="-10" y="150" as="targetPoint" />
            <mxPoint x="-40" y="600" as="sourcePoint" />
            <Array as="points">
              <mxPoint x="-70" y="365" />
              <mxPoint x="-30" y="375" />
            </Array>
          </mxGeometry>
        </mxCell>
        <mxCell id="nw-LskAQN57HLbFkefRe-102" style="edgeStyle=elbowEdgeStyle;rounded=0;orthogonalLoop=1;jettySize=auto;html=1;" edge="1" parent="WIyWlLk6GJQsqaUBKTNV-1">
          <mxGeometry relative="1" as="geometry">
            <mxPoint x="160" y="640" as="targetPoint" />
            <mxPoint x="110" y="620" as="sourcePoint" />
          </mxGeometry>
        </mxCell>
        <mxCell id="nw-LskAQN57HLbFkefRe-2" value="rec_thcat" style="swimlane;whiteSpace=wrap;html=1;" vertex="1" parent="WIyWlLk6GJQsqaUBKTNV-1">
          <mxGeometry x="10" y="560" width="100" height="90" as="geometry" />
        </mxCell>
        <mxCell id="nw-LskAQN57HLbFkefRe-4" value="&lt;u&gt;Rec_id&lt;/u&gt;&lt;div&gt;&lt;u&gt;Themcat_id&lt;/u&gt;&lt;/div&gt;&lt;div&gt;&lt;br&gt;&lt;/div&gt;" style="text;html=1;align=center;verticalAlign=middle;resizable=0;points=[];autosize=1;strokeColor=none;fillColor=none;" vertex="1" parent="nw-LskAQN57HLbFkefRe-2">
          <mxGeometry x="5" y="30" width="90" height="60" as="geometry" />
        </mxCell>
        <mxCell id="nw-LskAQN57HLbFkefRe-112" style="edgeStyle=elbowEdgeStyle;rounded=0;orthogonalLoop=1;jettySize=auto;html=1;" edge="1" parent="WIyWlLk6GJQsqaUBKTNV-1">
          <mxGeometry relative="1" as="geometry">
            <mxPoint x="340" y="390" as="targetPoint" />
            <mxPoint x="390" y="110" as="sourcePoint" />
            <Array as="points">
              <mxPoint x="330" y="110" />
              <mxPoint x="330" y="260" />
            </Array>
          </mxGeometry>
        </mxCell>
        <mxCell id="nw-LskAQN57HLbFkefRe-7" value="Equipment" style="swimlane;whiteSpace=wrap;html=1;" vertex="1" parent="WIyWlLk6GJQsqaUBKTNV-1">
          <mxGeometry x="390" y="20" width="100" height="120" as="geometry" />
        </mxCell>
        <mxCell id="nw-LskAQN57HLbFkefRe-8" value="&lt;u&gt;Equi_id&lt;/u&gt;&lt;div&gt;&lt;span style=&quot;background-color: initial;&quot;&gt;Name&lt;/span&gt;&lt;br&gt;&lt;/div&gt;&lt;div&gt;Instruction&lt;/div&gt;&lt;div&gt;Image_id&lt;/div&gt;" style="text;html=1;align=center;verticalAlign=middle;resizable=0;points=[];autosize=1;strokeColor=none;fillColor=none;" vertex="1" parent="nw-LskAQN57HLbFkefRe-7">
          <mxGeometry x="10" y="32" width="80" height="70" as="geometry" />
        </mxCell>
        <mxCell id="nw-LskAQN57HLbFkefRe-96" style="edgeStyle=elbowEdgeStyle;rounded=0;orthogonalLoop=1;jettySize=auto;html=1;entryX=1.009;entryY=0.058;entryDx=0;entryDy=0;entryPerimeter=0;" edge="1" parent="WIyWlLk6GJQsqaUBKTNV-1" target="nw-LskAQN57HLbFkefRe-49">
          <mxGeometry relative="1" as="geometry">
            <mxPoint x="140" y="157.25" as="targetPoint" />
            <mxPoint x="660" y="110" as="sourcePoint" />
            <Array as="points">
              <mxPoint x="500" y="167.25" />
            </Array>
          </mxGeometry>
        </mxCell>
        <mxCell id="nw-LskAQN57HLbFkefRe-99" style="edgeStyle=elbowEdgeStyle;rounded=0;orthogonalLoop=1;jettySize=auto;html=1;exitX=1;exitY=0.5;exitDx=0;exitDy=0;" edge="1" parent="WIyWlLk6GJQsqaUBKTNV-1" source="nw-LskAQN57HLbFkefRe-12">
          <mxGeometry relative="1" as="geometry">
            <mxPoint x="750" y="320" as="targetPoint" />
            <Array as="points">
              <mxPoint x="780" y="320" />
              <mxPoint x="780" y="210" />
            </Array>
          </mxGeometry>
        </mxCell>
        <mxCell id="nw-LskAQN57HLbFkefRe-12" value="rec_epi" style="swimlane;whiteSpace=wrap;html=1;" vertex="1" parent="WIyWlLk6GJQsqaUBKTNV-1">
          <mxGeometry x="660" y="48" width="100" height="90" as="geometry" />
        </mxCell>
        <mxCell id="nw-LskAQN57HLbFkefRe-20" value="&lt;u&gt;Episode_id&lt;/u&gt;&lt;div&gt;&lt;u&gt;Rec_id&lt;/u&gt;&lt;/div&gt;" style="text;html=1;align=center;verticalAlign=middle;resizable=0;points=[];autosize=1;strokeColor=none;fillColor=none;" vertex="1" parent="nw-LskAQN57HLbFkefRe-12">
          <mxGeometry x="10" y="32" width="80" height="40" as="geometry" />
        </mxCell>
        <mxCell id="nw-LskAQN57HLbFkefRe-69" style="edgeStyle=elbowEdgeStyle;rounded=0;orthogonalLoop=1;jettySize=auto;html=1;exitX=0;exitY=0.5;exitDx=0;exitDy=0;entryX=0.997;entryY=0.029;entryDx=0;entryDy=0;entryPerimeter=0;" edge="1" parent="WIyWlLk6GJQsqaUBKTNV-1" source="nw-LskAQN57HLbFkefRe-13" target="nw-LskAQN57HLbFkefRe-49">
          <mxGeometry relative="1" as="geometry">
            <mxPoint x="140" y="160" as="targetPoint" />
          </mxGeometry>
        </mxCell>
        <mxCell id="nw-LskAQN57HLbFkefRe-70" style="edgeStyle=elbowEdgeStyle;rounded=0;orthogonalLoop=1;jettySize=auto;html=1;exitX=1;exitY=0.75;exitDx=0;exitDy=0;" edge="1" parent="WIyWlLk6GJQsqaUBKTNV-1" source="nw-LskAQN57HLbFkefRe-13">
          <mxGeometry relative="1" as="geometry">
            <mxPoint x="480" y="280" as="targetPoint" />
          </mxGeometry>
        </mxCell>
        <mxCell id="nw-LskAQN57HLbFkefRe-13" value="rec_cui" style="swimlane;whiteSpace=wrap;html=1;" vertex="1" parent="WIyWlLk6GJQsqaUBKTNV-1">
          <mxGeometry x="340" y="212" width="100" height="90" as="geometry" />
        </mxCell>
        <mxCell id="nw-LskAQN57HLbFkefRe-19" value="&lt;div&gt;&lt;u&gt;Rec_id&lt;/u&gt;&lt;/div&gt;&lt;div&gt;&lt;u&gt;Cui_id&lt;/u&gt;&lt;/div&gt;" style="text;html=1;align=center;verticalAlign=middle;resizable=0;points=[];autosize=1;strokeColor=none;fillColor=none;" vertex="1" parent="nw-LskAQN57HLbFkefRe-13">
          <mxGeometry x="20" y="30" width="60" height="40" as="geometry" />
        </mxCell>
        <mxCell id="nw-LskAQN57HLbFkefRe-77" style="edgeStyle=orthogonalEdgeStyle;rounded=0;orthogonalLoop=1;jettySize=auto;html=1;exitX=0;exitY=0.5;exitDx=0;exitDy=0;elbow=vertical;" edge="1" parent="WIyWlLk6GJQsqaUBKTNV-1" source="nw-LskAQN57HLbFkefRe-14" target="nw-LskAQN57HLbFkefRe-49">
          <mxGeometry relative="1" as="geometry">
            <mxPoint x="30" y="160" as="targetPoint" />
            <Array as="points">
              <mxPoint x="144" y="485" />
              <mxPoint x="144" y="420" />
              <mxPoint x="145" y="420" />
              <mxPoint x="145" y="150" />
            </Array>
          </mxGeometry>
        </mxCell>
        <mxCell id="nw-LskAQN57HLbFkefRe-14" value="img_rec" style="swimlane;whiteSpace=wrap;html=1;" vertex="1" parent="WIyWlLk6GJQsqaUBKTNV-1">
          <mxGeometry x="164" y="440" width="100" height="90" as="geometry" />
        </mxCell>
        <mxCell id="nw-LskAQN57HLbFkefRe-18" value="&lt;u&gt;Rec_id&lt;/u&gt;&lt;div&gt;&lt;u&gt;Image_d&lt;/u&gt;&lt;/div&gt;" style="text;html=1;align=center;verticalAlign=middle;resizable=0;points=[];autosize=1;strokeColor=none;fillColor=none;" vertex="1" parent="nw-LskAQN57HLbFkefRe-14">
          <mxGeometry x="10" y="33" width="70" height="40" as="geometry" />
        </mxCell>
        <mxCell id="nw-LskAQN57HLbFkefRe-90" style="edgeStyle=elbowEdgeStyle;rounded=0;orthogonalLoop=1;jettySize=auto;html=1;" edge="1" parent="WIyWlLk6GJQsqaUBKTNV-1">
          <mxGeometry relative="1" as="geometry">
            <mxPoint x="414" y="780" as="targetPoint" />
            <mxPoint x="420" y="580" as="sourcePoint" />
            <Array as="points">
              <mxPoint x="434" y="699" />
            </Array>
          </mxGeometry>
        </mxCell>
        <mxCell id="nw-LskAQN57HLbFkefRe-91" style="edgeStyle=elbowEdgeStyle;rounded=0;orthogonalLoop=1;jettySize=auto;html=1;exitX=1;exitY=0.5;exitDx=0;exitDy=0;entryX=1;entryY=0.5;entryDx=0;entryDy=0;" edge="1" parent="WIyWlLk6GJQsqaUBKTNV-1" source="nw-LskAQN57HLbFkefRe-15" target="nw-LskAQN57HLbFkefRe-21">
          <mxGeometry relative="1" as="geometry">
            <Array as="points">
              <mxPoint x="460" y="490" />
            </Array>
          </mxGeometry>
        </mxCell>
        <mxCell id="nw-LskAQN57HLbFkefRe-21" value="Image" style="swimlane;whiteSpace=wrap;html=1;" vertex="1" parent="WIyWlLk6GJQsqaUBKTNV-1">
          <mxGeometry x="340" y="360" width="100" height="90" as="geometry" />
        </mxCell>
        <mxCell id="nw-LskAQN57HLbFkefRe-27" value="&lt;u&gt;Image_id&lt;/u&gt;&lt;div&gt;Description&lt;/div&gt;" style="text;html=1;align=center;verticalAlign=middle;resizable=0;points=[];autosize=1;strokeColor=none;fillColor=none;" vertex="1" parent="nw-LskAQN57HLbFkefRe-21">
          <mxGeometry x="10" y="25" width="80" height="40" as="geometry" />
        </mxCell>
        <mxCell id="nw-LskAQN57HLbFkefRe-105" style="edgeStyle=elbowEdgeStyle;rounded=0;orthogonalLoop=1;jettySize=auto;html=1;exitX=0;exitY=0.5;exitDx=0;exitDy=0;" edge="1" parent="WIyWlLk6GJQsqaUBKTNV-1" source="nw-LskAQN57HLbFkefRe-22">
          <mxGeometry relative="1" as="geometry">
            <mxPoint x="420" y="570" as="targetPoint" />
          </mxGeometry>
        </mxCell>
        <mxCell id="nw-LskAQN57HLbFkefRe-22" value="Cuisine" style="swimlane;whiteSpace=wrap;html=1;" vertex="1" parent="WIyWlLk6GJQsqaUBKTNV-1">
          <mxGeometry x="480" y="230" width="100" height="90" as="geometry" />
        </mxCell>
        <mxCell id="nw-LskAQN57HLbFkefRe-26" value="&lt;u&gt;Cui_id&lt;/u&gt;&lt;div&gt;Image_id&lt;/div&gt;&lt;div&gt;Name&lt;/div&gt;" style="text;html=1;align=center;verticalAlign=middle;resizable=0;points=[];autosize=1;strokeColor=none;fillColor=none;" vertex="1" parent="nw-LskAQN57HLbFkefRe-22">
          <mxGeometry x="15" y="17" width="70" height="60" as="geometry" />
        </mxCell>
        <mxCell id="nw-LskAQN57HLbFkefRe-63" style="edgeStyle=elbowEdgeStyle;rounded=0;orthogonalLoop=1;jettySize=auto;html=1;exitX=0;exitY=0.5;exitDx=0;exitDy=0;" edge="1" parent="WIyWlLk6GJQsqaUBKTNV-1">
          <mxGeometry relative="1" as="geometry">
            <mxPoint x="580" y="260" as="targetPoint" />
            <mxPoint x="660" y="205" as="sourcePoint" />
            <Array as="points">
              <mxPoint x="620" y="250" />
            </Array>
          </mxGeometry>
        </mxCell>
        <mxCell id="nw-LskAQN57HLbFkefRe-64" style="edgeStyle=elbowEdgeStyle;rounded=0;orthogonalLoop=1;jettySize=auto;html=1;" edge="1" parent="WIyWlLk6GJQsqaUBKTNV-1">
          <mxGeometry relative="1" as="geometry">
            <mxPoint x="760" y="220" as="sourcePoint" />
            <mxPoint x="750" y="310" as="targetPoint" />
            <Array as="points">
              <mxPoint x="770" y="270" />
            </Array>
          </mxGeometry>
        </mxCell>
        <mxCell id="nw-LskAQN57HLbFkefRe-23" value="cui_epi" style="swimlane;whiteSpace=wrap;html=1;" vertex="1" parent="WIyWlLk6GJQsqaUBKTNV-1">
          <mxGeometry x="660" y="170" width="100" height="90" as="geometry" />
        </mxCell>
        <mxCell id="nw-LskAQN57HLbFkefRe-24" value="&lt;u&gt;Cui_id&lt;/u&gt;&lt;div&gt;&lt;u&gt;Episode_id&lt;/u&gt;&lt;/div&gt;" style="text;html=1;align=center;verticalAlign=middle;resizable=0;points=[];autosize=1;strokeColor=none;fillColor=none;" vertex="1" parent="nw-LskAQN57HLbFkefRe-23">
          <mxGeometry x="10" y="25" width="80" height="40" as="geometry" />
        </mxCell>
        <mxCell id="nw-LskAQN57HLbFkefRe-89" style="edgeStyle=elbowEdgeStyle;rounded=0;orthogonalLoop=1;jettySize=auto;html=1;" edge="1" parent="WIyWlLk6GJQsqaUBKTNV-1">
          <mxGeometry relative="1" as="geometry">
            <mxPoint x="410" y="780" as="targetPoint" />
            <mxPoint x="640" y="730" as="sourcePoint" />
          </mxGeometry>
        </mxCell>
        <mxCell id="nw-LskAQN57HLbFkefRe-95" style="edgeStyle=elbowEdgeStyle;rounded=0;orthogonalLoop=1;jettySize=auto;html=1;exitX=1;exitY=0.5;exitDx=0;exitDy=0;" edge="1" parent="WIyWlLk6GJQsqaUBKTNV-1" source="nw-LskAQN57HLbFkefRe-28">
          <mxGeometry relative="1" as="geometry">
            <mxPoint x="750" y="314" as="targetPoint" />
            <Array as="points">
              <mxPoint x="790" y="520" />
            </Array>
          </mxGeometry>
        </mxCell>
        <mxCell id="nw-LskAQN57HLbFkefRe-28" value="chef_epi" style="swimlane;whiteSpace=wrap;html=1;" vertex="1" parent="WIyWlLk6GJQsqaUBKTNV-1">
          <mxGeometry x="640" y="670" width="100" height="90" as="geometry" />
        </mxCell>
        <mxCell id="nw-LskAQN57HLbFkefRe-42" value="&lt;div&gt;&lt;u&gt;Episode_id&lt;/u&gt;&lt;/div&gt;&lt;u&gt;Chef_id&lt;/u&gt;" style="text;html=1;align=center;verticalAlign=middle;resizable=0;points=[];autosize=1;strokeColor=none;fillColor=none;" vertex="1" parent="nw-LskAQN57HLbFkefRe-28">
          <mxGeometry x="10" y="30" width="80" height="40" as="geometry" />
        </mxCell>
        <mxCell id="nw-LskAQN57HLbFkefRe-29" value="Judge" style="swimlane;whiteSpace=wrap;html=1;" vertex="1" parent="WIyWlLk6GJQsqaUBKTNV-1">
          <mxGeometry x="480" y="820" width="100" height="90" as="geometry" />
        </mxCell>
        <mxCell id="nw-LskAQN57HLbFkefRe-44" value="Judge_id&lt;div&gt;Mark&lt;/div&gt;" style="text;html=1;align=center;verticalAlign=middle;resizable=0;points=[];autosize=1;strokeColor=none;fillColor=none;" vertex="1" parent="nw-LskAQN57HLbFkefRe-29">
          <mxGeometry x="15" y="35" width="70" height="40" as="geometry" />
        </mxCell>
        <mxCell id="nw-LskAQN57HLbFkefRe-92" style="edgeStyle=elbowEdgeStyle;rounded=0;orthogonalLoop=1;jettySize=auto;html=1;exitX=1;exitY=0.5;exitDx=0;exitDy=0;entryX=1;entryY=0.25;entryDx=0;entryDy=0;" edge="1" parent="WIyWlLk6GJQsqaUBKTNV-1" source="nw-LskAQN57HLbFkefRe-30" target="nw-LskAQN57HLbFkefRe-22">
          <mxGeometry relative="1" as="geometry">
            <mxPoint x="580" y="280" as="targetPoint" />
            <Array as="points">
              <mxPoint x="600" y="470" />
            </Array>
          </mxGeometry>
        </mxCell>
        <mxCell id="nw-LskAQN57HLbFkefRe-93" style="edgeStyle=elbowEdgeStyle;rounded=0;orthogonalLoop=1;jettySize=auto;html=1;" edge="1" parent="WIyWlLk6GJQsqaUBKTNV-1">
          <mxGeometry relative="1" as="geometry">
            <mxPoint x="410" y="790" as="targetPoint" />
            <mxPoint x="490" y="680" as="sourcePoint" />
          </mxGeometry>
        </mxCell>
        <mxCell id="nw-LskAQN57HLbFkefRe-30" value="chef_cui" style="swimlane;whiteSpace=wrap;html=1;" vertex="1" parent="WIyWlLk6GJQsqaUBKTNV-1">
          <mxGeometry x="490" y="620" width="100" height="90" as="geometry" />
        </mxCell>
        <mxCell id="nw-LskAQN57HLbFkefRe-41" value="&lt;div&gt;&lt;u&gt;Cui_ id&lt;/u&gt;&lt;/div&gt;&lt;div&gt;&lt;u&gt;Chef_id&lt;/u&gt;&lt;u&gt;&lt;br&gt;&lt;/u&gt;&lt;/div&gt;" style="text;html=1;align=center;verticalAlign=middle;resizable=0;points=[];autosize=1;strokeColor=none;fillColor=none;" vertex="1" parent="nw-LskAQN57HLbFkefRe-30">
          <mxGeometry x="20" y="30" width="60" height="40" as="geometry" />
        </mxCell>
        <mxCell id="nw-LskAQN57HLbFkefRe-110" style="edgeStyle=elbowEdgeStyle;rounded=0;orthogonalLoop=1;jettySize=auto;html=1;entryX=1;entryY=0.5;entryDx=0;entryDy=0;" edge="1" parent="WIyWlLk6GJQsqaUBKTNV-1" target="nw-LskAQN57HLbFkefRe-21">
          <mxGeometry relative="1" as="geometry">
            <mxPoint x="450" y="430" as="targetPoint" />
            <mxPoint x="410" y="810" as="sourcePoint" />
            <Array as="points">
              <mxPoint x="470" y="800" />
              <mxPoint x="470" y="600" />
            </Array>
          </mxGeometry>
        </mxCell>
        <mxCell id="nw-LskAQN57HLbFkefRe-31" value="Chefs" style="swimlane;whiteSpace=wrap;html=1;" vertex="1" parent="WIyWlLk6GJQsqaUBKTNV-1">
          <mxGeometry x="264" y="750" width="150" height="175" as="geometry" />
        </mxCell>
        <mxCell id="nw-LskAQN57HLbFkefRe-40" value="&lt;div&gt;&lt;u&gt;&lt;br&gt;&lt;/u&gt;&lt;/div&gt;&lt;u&gt;Chef_id&lt;/u&gt;&lt;div&gt;&lt;u&gt;&lt;br&gt;&lt;/u&gt;&lt;div&gt;Image_id&lt;/div&gt;&lt;div&gt;Name&lt;/div&gt;&lt;div&gt;Surname&lt;/div&gt;&lt;div&gt;Phone_number&lt;/div&gt;&lt;div&gt;Birth_date&lt;/div&gt;&lt;div&gt;Age()&lt;/div&gt;&lt;div&gt;Experience&lt;/div&gt;&lt;div&gt;Job_title&lt;/div&gt;&lt;/div&gt;" style="text;html=1;align=center;verticalAlign=middle;resizable=0;points=[];autosize=1;strokeColor=none;fillColor=none;" vertex="1" parent="nw-LskAQN57HLbFkefRe-31">
          <mxGeometry x="20" y="5" width="110" height="170" as="geometry" />
        </mxCell>
        <mxCell id="nw-LskAQN57HLbFkefRe-103" style="edgeStyle=elbowEdgeStyle;rounded=0;orthogonalLoop=1;jettySize=auto;html=1;exitX=1;exitY=0.5;exitDx=0;exitDy=0;entryX=0;entryY=0.5;entryDx=0;entryDy=0;" edge="1" parent="WIyWlLk6GJQsqaUBKTNV-1" source="nw-LskAQN57HLbFkefRe-33" target="nw-LskAQN57HLbFkefRe-21">
          <mxGeometry relative="1" as="geometry" />
        </mxCell>
        <mxCell id="nw-LskAQN57HLbFkefRe-33" value="Thematic Category" style="swimlane;whiteSpace=wrap;html=1;" vertex="1" parent="WIyWlLk6GJQsqaUBKTNV-1">
          <mxGeometry x="160" y="600" width="120" height="95" as="geometry" />
        </mxCell>
        <mxCell id="nw-LskAQN57HLbFkefRe-38" value="&lt;u&gt;Them-id&lt;/u&gt;&lt;div&gt;Image_id&lt;/div&gt;&lt;div&gt;Name&lt;/div&gt;&lt;div&gt;Description&lt;/div&gt;" style="text;html=1;align=center;verticalAlign=middle;resizable=0;points=[];autosize=1;strokeColor=none;fillColor=none;" vertex="1" parent="nw-LskAQN57HLbFkefRe-33">
          <mxGeometry x="20" y="25" width="80" height="70" as="geometry" />
        </mxCell>
        <mxCell id="nw-LskAQN57HLbFkefRe-71" style="edgeStyle=elbowEdgeStyle;rounded=0;orthogonalLoop=1;jettySize=auto;html=1;exitX=0;exitY=0.5;exitDx=0;exitDy=0;" edge="1" parent="WIyWlLk6GJQsqaUBKTNV-1" source="nw-LskAQN57HLbFkefRe-34">
          <mxGeometry relative="1" as="geometry">
            <mxPoint x="440" y="400" as="targetPoint" />
          </mxGeometry>
        </mxCell>
        <mxCell id="nw-LskAQN57HLbFkefRe-72" style="edgeStyle=elbowEdgeStyle;rounded=0;orthogonalLoop=1;jettySize=auto;html=1;" edge="1" parent="WIyWlLk6GJQsqaUBKTNV-1">
          <mxGeometry relative="1" as="geometry">
            <mxPoint x="650" y="320" as="targetPoint" />
            <mxPoint x="580" y="470" as="sourcePoint" />
            <Array as="points">
              <mxPoint x="610" y="400" />
            </Array>
          </mxGeometry>
        </mxCell>
        <mxCell id="nw-LskAQN57HLbFkefRe-34" value="img_epi" style="swimlane;whiteSpace=wrap;html=1;" vertex="1" parent="WIyWlLk6GJQsqaUBKTNV-1">
          <mxGeometry x="480" y="410" width="100" height="90" as="geometry" />
        </mxCell>
        <mxCell id="nw-LskAQN57HLbFkefRe-37" value="&lt;u&gt;Image_id&lt;/u&gt;&lt;div&gt;&lt;u&gt;Episode_id&lt;/u&gt;&lt;/div&gt;" style="text;html=1;align=center;verticalAlign=middle;resizable=0;points=[];autosize=1;strokeColor=none;fillColor=none;" vertex="1" parent="nw-LskAQN57HLbFkefRe-34">
          <mxGeometry x="10" y="33" width="80" height="40" as="geometry" />
        </mxCell>
        <mxCell id="nw-LskAQN57HLbFkefRe-106" style="edgeStyle=elbowEdgeStyle;rounded=0;orthogonalLoop=1;jettySize=auto;html=1;" edge="1" parent="WIyWlLk6GJQsqaUBKTNV-1">
          <mxGeometry relative="1" as="geometry">
            <mxPoint x="440" y="390" as="targetPoint" />
            <mxPoint x="650" y="330" as="sourcePoint" />
          </mxGeometry>
        </mxCell>
        <mxCell id="nw-LskAQN57HLbFkefRe-107" style="edgeStyle=elbowEdgeStyle;rounded=0;orthogonalLoop=1;jettySize=auto;html=1;exitX=0;exitY=0.5;exitDx=0;exitDy=0;" edge="1" parent="WIyWlLk6GJQsqaUBKTNV-1" source="nw-LskAQN57HLbFkefRe-35">
          <mxGeometry relative="1" as="geometry">
            <mxPoint x="580" y="260" as="targetPoint" />
          </mxGeometry>
        </mxCell>
        <mxCell id="nw-LskAQN57HLbFkefRe-113" style="edgeStyle=elbowEdgeStyle;rounded=0;orthogonalLoop=1;jettySize=auto;html=1;entryX=1;entryY=0.5;entryDx=0;entryDy=0;" edge="1" parent="WIyWlLk6GJQsqaUBKTNV-1" target="nw-LskAQN57HLbFkefRe-29">
          <mxGeometry relative="1" as="geometry">
            <mxPoint x="650" y="370" as="sourcePoint" />
          </mxGeometry>
        </mxCell>
        <mxCell id="nw-LskAQN57HLbFkefRe-35" value="Episodes" style="swimlane;whiteSpace=wrap;html=1;" vertex="1" parent="WIyWlLk6GJQsqaUBKTNV-1">
          <mxGeometry x="650" y="280" width="100" height="110" as="geometry" />
        </mxCell>
        <mxCell id="nw-LskAQN57HLbFkefRe-36" value="&lt;u&gt;Episode_id&lt;/u&gt;&lt;div&gt;Image_id&lt;/div&gt;&lt;div&gt;Cuisine_id&lt;/div&gt;&lt;div&gt;Recipe_id&lt;/div&gt;&lt;div&gt;Judge_id&lt;/div&gt;" style="text;html=1;align=center;verticalAlign=middle;resizable=0;points=[];autosize=1;strokeColor=none;fillColor=none;" vertex="1" parent="nw-LskAQN57HLbFkefRe-35">
          <mxGeometry x="10" y="20" width="80" height="90" as="geometry" />
        </mxCell>
        <mxCell id="nw-LskAQN57HLbFkefRe-45" value="Vertical Container" style="swimlane;whiteSpace=wrap;html=1;startSize=23;" vertex="1" parent="WIyWlLk6GJQsqaUBKTNV-1">
          <mxGeometry x="-10" y="110" width="140" height="354" as="geometry" />
        </mxCell>
        <mxCell id="nw-LskAQN57HLbFkefRe-49" value="&lt;u&gt;Rec_id&lt;/u&gt;&lt;div&gt;&lt;u&gt;Image_id&lt;/u&gt;&lt;/div&gt;&lt;div&gt;&lt;u&gt;Equipment_id&lt;/u&gt;&lt;/div&gt;&lt;div&gt;Ingredients&lt;/div&gt;&lt;div&gt;Basic_ingredient&lt;/div&gt;&lt;div&gt;Type&lt;/div&gt;&lt;div&gt;Cuisine&lt;/div&gt;&lt;div&gt;Difficulty&lt;/div&gt;&lt;div&gt;Name&lt;/div&gt;&lt;div&gt;{Meal Group}&lt;/div&gt;&lt;div&gt;{Additional Tags}&lt;/div&gt;&lt;div&gt;{Advice}&lt;/div&gt;&lt;div&gt;{Step_id}&lt;/div&gt;&lt;div&gt;Preparation_time()&lt;/div&gt;&lt;div&gt;Cooking_time()&lt;/div&gt;&lt;div&gt;Total_time(0&lt;/div&gt;&lt;div&gt;Number of servings&lt;/div&gt;&lt;div&gt;Fat/serving()&lt;/div&gt;&lt;div&gt;Protein/serving()&lt;/div&gt;&lt;div&gt;Carbs/serving()&lt;/div&gt;&lt;div&gt;Calories/serving()&lt;/div&gt;&lt;div&gt;&lt;br&gt;&lt;/div&gt;" style="text;html=1;align=center;verticalAlign=middle;resizable=0;points=[];autosize=1;strokeColor=none;fillColor=none;" vertex="1" parent="nw-LskAQN57HLbFkefRe-45">
          <mxGeometry x="5" y="24" width="130" height="330" as="geometry" />
        </mxCell>
        <mxCell id="nw-LskAQN57HLbFkefRe-57" style="edgeStyle=elbowEdgeStyle;rounded=0;orthogonalLoop=1;jettySize=auto;html=1;exitX=1;exitY=0.5;exitDx=0;exitDy=0;" edge="1" parent="WIyWlLk6GJQsqaUBKTNV-1" source="nw-LskAQN57HLbFkefRe-1">
          <mxGeometry relative="1" as="geometry">
            <mxPoint x="390" y="60" as="targetPoint" />
            <Array as="points">
              <mxPoint x="320" y="300" />
            </Array>
          </mxGeometry>
        </mxCell>
        <mxCell id="nw-LskAQN57HLbFkefRe-58" style="edgeStyle=elbowEdgeStyle;rounded=0;orthogonalLoop=1;jettySize=auto;html=1;exitX=0.5;exitY=0;exitDx=0;exitDy=0;" edge="1" parent="WIyWlLk6GJQsqaUBKTNV-1" source="nw-LskAQN57HLbFkefRe-7" target="nw-LskAQN57HLbFkefRe-7">
          <mxGeometry relative="1" as="geometry" />
        </mxCell>
        <mxCell id="nw-LskAQN57HLbFkefRe-15" value="img_chef" style="swimlane;whiteSpace=wrap;html=1;" vertex="1" parent="WIyWlLk6GJQsqaUBKTNV-1">
          <mxGeometry x="320" y="530" width="100" height="90" as="geometry" />
        </mxCell>
        <mxCell id="nw-LskAQN57HLbFkefRe-17" value="&lt;u&gt;Image_id&lt;/u&gt;&lt;div&gt;&lt;u&gt;Chef_id&lt;/u&gt;&lt;/div&gt;" style="text;html=1;align=center;verticalAlign=middle;resizable=0;points=[];autosize=1;strokeColor=none;fillColor=none;" vertex="1" parent="nw-LskAQN57HLbFkefRe-15">
          <mxGeometry x="15" y="30" width="70" height="40" as="geometry" />
        </mxCell>
      </root>
    </mxGraphModel>
  </diagram>
</mxfile>
